<svg viewBox="0 0 480 260" xmlns="http://www.w3.org/2000/svg" role="img" aria-hidden="true" focusable="false">
  <defs>
    <linearGradient id="g1" x1="0" y1="0" x2="1" y2="1">
      <stop offset="0" stop-color="#2563eb"/>
      <stop offset="1" stop-color="#1742b8"/>
    </linearGradient>
  </defs>
  <rect width="480" height="260" rx="20" fill="#e8efff"/>
  <circle cx="55" cy="45" r="9" fill="#ffffff" opacity=".6"/>
  <circle cx="425" cy="205" r="12" fill="#ffffff" opacity=".5"/>
  <circle cx="65" cy="215" r="6" fill="#1d4ed8" opacity=".25"/>

  <!-- calendrier avec jours de conges -->
  <rect x="150" y="55" width="180" height="150" rx="14" fill="#ffffff"/>
  <rect x="150" y="55" width="180" height="36" rx="14" fill="url(#g1)"/>
  <rect x="150" y="73" width="180" height="18" fill="url(#g1)"/>
  <rect x="176" y="46" width="10" height="20" rx="3" fill="#1742b8"/>
  <rect x="294" y="46" width="10" height="20" rx="3" fill="#1742b8"/>

  <rect x="170" y="112" width="24" height="18" rx="4" fill="#e2e6ec"/>
  <rect x="202" y="112" width="24" height="18" rx="4" fill="#b45309"/>
  <rect x="234" y="112" width="24" height="18" rx="4" fill="#b45309"/>
  <rect x="266" y="112" width="24" height="18" rx="4" fill="#b45309"/>
  <rect x="298" y="112" width="24" height="18" rx="4" fill="#e2e6ec"/>

  <rect x="170" y="142" width="24" height="18" rx="4" fill="#e2e6ec"/>
  <rect x="202" y="142" width="24" height="18" rx="4" fill="#e2e6ec"/>
  <rect x="234" y="142" width="24" height="18" rx="4" fill="#e2e6ec"/>
  <rect x="266" y="142" width="24" height="18" rx="4" fill="#e2e6ec"/>
  <rect x="298" y="142" width="24" height="18" rx="4" fill="#e2e6ec"/>

  <!-- badge -->
  <circle cx="330" cy="58" r="27" fill="url(#g1)"/>
  <circle cx="330" cy="58" r="10" fill="none" stroke="#ffffff" stroke-width="3"/>
  <g stroke="#ffffff" stroke-width="3" stroke-linecap="round">
    <line x1="330" y1="42" x2="330" y2="46"/>
    <line x1="330" y1="70" x2="330" y2="74"/>
    <line x1="314" y1="58" x2="318" y2="58"/>
    <line x1="342" y1="58" x2="346" y2="58"/>
  </g>
</svg>
