<svg viewBox="0 0 480 260" xmlns="http://www.w3.org/2000/svg" role="img" aria-hidden="true" focusable="false">
  <defs>
    <linearGradient id="g1" x1="0" y1="0" x2="1" y2="1">
      <stop offset="0" stop-color="#2563eb"/>
      <stop offset="1" stop-color="#1742b8"/>
    </linearGradient>
  </defs>
  <rect width="480" height="260" rx="20" fill="#e8efff"/>
  <circle cx="55" cy="45" r="9" fill="#ffffff" opacity=".6"/>
  <circle cx="425" cy="205" r="12" fill="#ffffff" opacity=".5"/>
  <circle cx="65" cy="215" r="6" fill="#1d4ed8" opacity=".25"/>

  <!-- carte + barres ascendantes -->
  <rect x="150" y="55" width="180" height="150" rx="14" fill="#ffffff"/>
  <rect x="150" y="55" width="180" height="36" rx="14" fill="url(#g1)"/>
  <rect x="150" y="73" width="180" height="18" fill="url(#g1)"/>

  <rect x="172" y="160" width="22" height="25" rx="4" fill="#e2e6ec"/>
  <rect x="204" y="145" width="22" height="40" rx="4" fill="#e2e6ec"/>
  <rect x="236" y="128" width="22" height="57" rx="4" fill="#0f7a4c"/>
  <rect x="268" y="110" width="22" height="75" rx="4" fill="#0f7a4c"/>
  <path d="M172 158 L204 143 L236 126 L268 108" fill="none" stroke="#0f7a4c" stroke-width="3" stroke-linecap="round"/>

  <!-- badge -->
  <circle cx="330" cy="58" r="27" fill="url(#g1)"/>
  <text x="330" y="68" font-family="Arial, Helvetica, sans-serif" font-size="24" font-weight="800" fill="#ffffff" text-anchor="middle">€</text>
</svg>
